<?xml version="1.0" encoding="utf-8"?>
<!-- Generator: Adobe Illustrator 16.0.0, SVG Export Plug-In . SVG Version: 6.00 Build 0)  -->
<!DOCTYPE svg PUBLIC "-//W3C//DTD SVG 1.1//EN" "http://www.w3.org/Graphics/SVG/1.1/DTD/svg11.dtd">
<svg version="1.1" id="Camada_1" xmlns="http://www.w3.org/2000/svg" xmlns:xlink="http://www.w3.org/1999/xlink" x="0px" y="0px"
	 width="280px" height="80px" viewBox="0 0 280 80" enable-background="new 0 0 280 80" xml:space="preserve">
<g>
	<path fill="#58595B" d="M107.299,57.757H93.926l-1.59,4.324c-0.059,0.177-0.295,0.291-0.531,0.291h-7.242
		c-0.477,0-0.708-0.291-0.533-0.642l16.083-41.157c0.175-0.408,0.883-0.408,1.059,0l16.081,41.157
		c0.178,0.351-0.058,0.642-0.472,0.642h-7.304c-0.176,0-0.413-0.114-0.472-0.291L107.299,57.757z M96.456,50.857h8.309
		l-4.123-12.278L96.456,50.857z"/>
	<path fill="#58595B" d="M143.349,62.372c-0.179,0-0.469-0.114-0.532-0.231l-10.367-16.428h-2.884v16.192
		c0,0.239-0.237,0.467-0.59,0.467h-6.716c-0.352,0-0.589-0.231-0.589-0.467V38.582c0-0.235,0.237-0.468,0.589-0.468h5.479
		c-2.004-3.099-4.065-6.37-6.068-9.469v-6.726c0-0.235,0.237-0.466,0.589-0.466h13.431c0,0,14.02,0,14.02,12.102
		c0,7.188-4.652,10.053-8.658,11.281l10.605,16.841c0.233,0.351,0,0.699-0.413,0.699h-7.896V62.372z M136.457,38.054
		c2.238-0.06,5.361-0.994,5.361-4.503c0-4.503-4.772-4.503-6.128-4.503h-4.946L136.457,38.054z"/>
	<path fill="#58595B" d="M194.065,38.696c0.294,0,0.532,0.235,0.532,0.467v22.918c0,0.233-0.238,0.467-0.532,0.467h-5.89
		c-0.291,0-0.589-0.176-0.589-0.407l-0.236-3.802c-2.827,3.218-6.419,4.62-11.013,4.62c-11.132,0-19.853-7.659-19.853-21.045
		c0-12.16,9.31-21.046,20.735-21.046c5.771,0,10.955,2.28,14.607,6.021c0.236,0.174,0.236,0.523,0,0.701l-4.709,4.675
		c-0.239,0.178-0.592,0.178-0.769,0c-2.357-2.335-5.595-3.798-9.13-3.798c-7.07,0-12.843,4.97-12.843,13.447
		c0,9.416,5.772,13.446,12.843,13.446c3.769,0,7.066-1.636,9.48-4.269V45.77h-6.654c-0.354,0-0.59-0.174-0.59-0.411v-6.193
		c0-0.235,0.236-0.468,0.59-0.468h14.019V38.696z"/>
	<path fill="#58595B" d="M242.485,41.854c0,10.465-6.834,21.043-20.322,21.043c-13.723,0-20.439-10.578-20.439-21.043
		c0-10.468,6.717-20.989,20.439-20.989C235.651,20.865,242.485,31.386,242.485,41.854 M234.533,41.97
		c0-6.842-4.183-13.68-12.37-13.68c-8.303,0-12.427,6.838-12.427,13.68c0,6.781,4.121,13.564,12.427,13.564
		C230.351,55.534,234.533,48.751,234.533,41.97"/>
	<path fill="#58595B" d="M248.671,50.857c0-0.236,0.236-0.467,0.589-0.467h6.715c0.293,0,0.589,0.234,0.589,0.467
		c0.119,2.981,2.593,4.5,5.301,4.5c2.83,0,5.304-1.869,5.304-4.677c0-3.098-2.887-4.967-5.304-5.084c-0.355,0-3.24,0-6.3-1.405
		c-4.419-2.044-6.894-5.729-6.894-10.64c0-7.892,6.421-12.686,13.193-12.686c7.246,0,12.902,4.855,13.017,11.985
		c0,0.177-0.233,0.411-0.587,0.411h-6.655c-0.291,0-0.59-0.234-0.59-0.411c-0.119-2.981-2.412-4.386-5.182-4.386
		c-2.888,0-5.301,1.696-5.301,5.087c0,3.042,2.59,4.618,5.301,4.618c0.293,0,3.239,0,6.243,1.406
		c4.478,2.045,6.89,6.195,6.89,11.108c0,7.892-6.359,12.278-13.133,12.278C254.562,62.782,248.788,58.573,248.671,50.857"/>
	<polygon fill="#FFCB31" points="33.033,28.223 45.668,51.608 33.004,8.886 5,61.439 	"/>
	<polygon fill="#BBBDBF" points="51.671,58.061 26.539,58.061 67.231,67.89 39.007,15.335 	"/>
	<polygon fill="#7B3720" points="20.537,61.286 33.033,37.9 5,71.114 61.203,71.114 	"/>
</g>
</svg>
