<?xml version="1.0" encoding="utf-8"?>
<!-- Generator: Adobe Illustrator 16.0.0, SVG Export Plug-In . SVG Version: 6.00 Build 0)  -->
<!DOCTYPE svg PUBLIC "-//W3C//DTD SVG 1.1//EN" "http://www.w3.org/Graphics/SVG/1.1/DTD/svg11.dtd">
<svg version="1.1" id="Camada_1" xmlns="http://www.w3.org/2000/svg" xmlns:xlink="http://www.w3.org/1999/xlink" x="0px" y="0px"
	 width="300px" height="243px" viewBox="0 0 300 243" enable-background="new 0 0 300 243" xml:space="preserve">
<g>
	<path fill="#FFFFFF" d="M60.726,207.372H44.188l-1.969,5.347c-0.071,0.221-0.365,0.36-0.657,0.36h-8.96
		c-0.584,0-0.875-0.36-0.657-0.797l19.888-50.9c0.219-0.505,1.093-0.505,1.311,0l19.887,50.9c0.219,0.437-0.072,0.797-0.583,0.797
		h-9.034c-0.215,0-0.51-0.143-0.582-0.36L60.726,207.372z M47.319,198.839h10.272l-5.099-15.187L47.319,198.839z"/>
	<path fill="#FFFFFF" d="M105.311,213.081c-0.219,0-0.584-0.141-0.657-0.288L91.83,192.477h-3.567v20.025
		c0,0.291-0.292,0.579-0.731,0.579h-8.305c-0.436,0-0.729-0.288-0.729-0.579v-28.847c0-0.288,0.292-0.579,0.729-0.579h6.775
		c-2.475-3.83-5.025-7.88-7.502-11.71v-8.316c0-0.289,0.292-0.577,0.729-0.577h16.609c0,0,17.339,0,17.339,14.964
		c0,8.895-5.754,12.438-10.709,13.952l13.112,20.825c0.292,0.434,0,0.867-0.509,0.867H105.311L105.311,213.081z M96.787,183.007
		c2.768-0.075,6.628-1.231,6.628-5.57c0-5.566-5.899-5.566-7.575-5.566h-6.119L96.787,183.007z"/>
	<path fill="#FFFFFF" d="M168.033,183.798c0.363,0,0.656,0.288,0.656,0.579v28.344c0,0.287-0.291,0.577-0.656,0.577h-7.287
		c-0.356,0-0.727-0.218-0.727-0.506l-0.289-4.701c-3.497,3.981-7.94,5.715-13.622,5.715c-13.769,0-24.551-9.471-24.551-26.028
		c0-15.039,11.508-26.028,25.641-26.028c7.137,0,13.546,2.819,18.063,7.446c0.289,0.219,0.289,0.649,0,0.869l-5.826,5.782
		c-0.289,0.215-0.729,0.215-0.945,0c-2.915-2.892-6.924-4.701-11.292-4.701c-8.747,0-15.882,6.151-15.882,16.632
		c0,11.641,7.136,16.629,15.882,16.629c4.663,0,8.74-2.024,11.726-5.281v-6.578h-8.23c-0.437,0-0.729-0.216-0.729-0.505v-7.665
		c0-0.289,0.289-0.579,0.729-0.579H168.033L168.033,183.798z"/>
	<path fill="#FFFFFF" d="M227.912,187.704c0,12.944-8.449,26.028-25.128,26.028c-16.974,0-25.276-13.086-25.276-26.028
		c0-12.943,8.303-25.956,25.276-25.956C219.465,161.745,227.912,174.76,227.912,187.704 M218.084,187.848
		c0-8.459-5.178-16.919-15.3-16.919c-10.272,0-15.371,8.459-15.371,16.919c0,8.387,5.099,16.772,15.371,16.772
		C212.906,204.62,218.084,196.234,218.084,187.848"/>
	<path fill="#FFFFFF" d="M235.564,198.839c0-0.291,0.293-0.579,0.729-0.579h8.305c0.363,0,0.732,0.288,0.732,0.579
		c0.146,3.687,3.201,5.567,6.555,5.567c3.5,0,6.555-2.314,6.555-5.786c0-3.832-3.568-6.144-6.555-6.289c-0.439,0-4.01,0-7.793-1.737
		c-5.465-2.528-8.523-7.083-8.523-13.155c0-9.762,7.939-15.688,16.316-15.688c8.961,0,15.955,6,16.1,14.821
		c0,0.219-0.291,0.508-0.729,0.508h-8.234c-0.361,0-0.727-0.289-0.727-0.508c-0.148-3.687-2.986-5.425-6.412-5.425
		c-3.568,0-6.555,2.101-6.555,6.292c0,3.761,3.203,5.709,6.555,5.709c0.363,0,4.006,0,7.723,1.739
		c5.537,2.529,8.521,7.663,8.521,13.733c0,9.765-7.865,15.188-16.244,15.188C242.852,213.588,235.713,208.381,235.564,198.839"/>
	<polygon fill="#FFCB31" points="144.136,65.976 168.169,110.459 144.081,29.191 90.815,129.153 	"/>
	<polygon fill="#BBBDBF" points="179.586,122.728 131.789,122.728 209.181,141.421 155.498,41.465 	"/>
	<polygon fill="#7B3720" points="120.367,128.866 144.135,84.383 90.813,147.561 197.719,147.561 	"/>
</g>
</svg>
