<?xml version="1.0" encoding="utf-8"?>
<!-- Generator: Adobe Illustrator 16.0.0, SVG Export Plug-In . SVG Version: 6.00 Build 0)  -->
<!DOCTYPE svg PUBLIC "-//W3C//DTD SVG 1.1//EN" "http://www.w3.org/Graphics/SVG/1.1/DTD/svg11.dtd">
<svg version="1.1" id="Camada_1" xmlns="http://www.w3.org/2000/svg" xmlns:xlink="http://www.w3.org/1999/xlink" x="0px" y="0px"
	 width="60px" height="20px" viewBox="0 0 60 20" enable-background="new 0 0 60 20" xml:space="preserve">
<g>
	<g>
		<path fill="#7B3720" d="M10,0C4.478,0,0,4.479,0,10c0,5.523,4.478,10.002,10,10.002c5.524,0,10-4.479,10-10.002
			C20,4.479,15.523,0,10,0 M9.994,15.412c0,0-4.172-4.289-4.172-7.17c0-2.306,1.868-4.178,4.172-4.178
			c2.307,0,4.182,1.872,4.182,4.178C14.176,11.123,9.994,15.412,9.994,15.412"/>
		<path fill="#7B3720" d="M9.994,5.809c-1.337,0-2.429,1.094-2.429,2.434s1.091,2.43,2.429,2.437c1.348,0,2.44-1.097,2.44-2.437
			S11.342,5.809,9.994,5.809 M9.999,9.681c-0.793,0-1.437-0.646-1.437-1.438c0-0.795,0.641-1.437,1.433-1.437
			c0.797,0,1.444,0.642,1.444,1.437C11.438,9.037,10.792,9.681,9.999,9.681"/>
	</g>
	<g>
		<path fill="#7B3720" d="M48.185,11.854c0.444-0.13,0.977-0.229,1.595-0.252v-1.39h-1.851
			C47.949,10.531,48.009,11.168,48.185,11.854"/>
		<path fill="#7B3720" d="M49.109,5.729c-0.843,0.197-1.59,0.667-2.152,1.317c0.113,0.101,0.397,0.313,0.937,0.488
			C48.241,6.598,48.744,6.037,49.109,5.729"/>
		<path fill="#7B3720" d="M49.751,5.801C49.7,5.826,48.827,6.27,48.304,7.652c0.391,0.092,0.875,0.16,1.475,0.18V5.633
			c-0.035,0.002-0.07,0.007-0.105,0.008L49.751,5.801z"/>
		<path fill="#7B3720" d="M52.02,7.56c0.613-0.22,0.855-0.509,0.93-0.618c-0.583-0.63-1.341-1.072-2.188-1.24
			C51.131,6.004,51.66,6.578,52.02,7.56"/>
		<polyline fill="#7B3720" points="50.222,5.633 50.222,5.656 50.232,5.634 50.222,5.633 		"/>
		<path fill="#7B3720" d="M49.779,14.272v-2.245c-0.571,0.023-1.065,0.117-1.476,0.239C48.569,13.088,49.021,13.904,49.779,14.272"
			/>
		<path fill="#7B3720" d="M47.501,10.213h-1.626c0.04,0.882,0.327,1.695,0.788,2.363c0.178-0.131,0.551-0.373,1.111-0.584
			C47.579,11.24,47.52,10.55,47.501,10.213"/>
		<path fill="#7B3720" d="M47.761,7.941c-0.575-0.189-0.905-0.418-1.068-0.559c-0.479,0.677-0.778,1.506-0.818,2.406h1.623
			C47.514,9.066,47.613,8.455,47.761,7.941"/>
		<path fill="#7B3720" d="M46.922,12.914c0.539,0.638,1.252,1.108,2.058,1.326c-0.527-0.479-0.866-1.16-1.086-1.838
			C47.401,12.594,47.075,12.805,46.922,12.914"/>
		<path fill="#7B3720" d="M47.923,9.789h1.856V8.257c-0.65-0.019-1.182-0.097-1.608-0.199C48.033,8.537,47.939,9.107,47.923,9.789"
			/>
		<path fill="#7B3720" d="M52.148,7.965c0.144,0.51,0.24,1.113,0.257,1.824h1.72c-0.042-0.948-0.373-1.817-0.897-2.514
			C53.069,7.469,52.75,7.75,52.148,7.965"/>
		<path fill="#7B3720" d="M50.884,14.274c0.823-0.19,1.556-0.643,2.115-1.268c-0.064-0.068-0.381-0.369-0.983-0.622
			C51.791,13.084,51.437,13.787,50.884,14.274"/>
		<path fill="#7B3720" d="M52.133,11.97c0.63,0.255,0.996,0.567,1.135,0.704c0.501-0.688,0.815-1.536,0.857-2.459H52.4
			C52.384,10.549,52.324,11.228,52.133,11.97"/>
		<path fill="#7B3720" d="M50,0c-5.523,0-10,4.478-10,10s4.478,10,10,10c5.524,0,10-4.478,10-10S55.524,0,50,0 M50,14.802
			c-2.513,0-4.556-2.153-4.556-4.8c0-2.648,2.043-4.801,4.556-4.801s4.556,2.152,4.556,4.801C54.556,12.648,52.514,14.802,50,14.802
			"/>
		<path fill="#7B3720" d="M50.222,5.838v1.996c0.567-0.008,1.021-0.065,1.385-0.152C51.157,6.481,50.443,5.973,50.222,5.838"/>
		<path fill="#7B3720" d="M50.222,12.024v2.198c0.708-0.393,1.133-1.188,1.387-1.984C51.229,12.123,50.768,12.039,50.222,12.024"/>
		<path fill="#7B3720" d="M51.738,8.088c-0.402,0.099-0.901,0.164-1.516,0.173v1.528h1.759C51.964,9.123,51.873,8.56,51.738,8.088"
			/>
		<path fill="#7B3720" d="M51.974,10.213h-1.752V11.6c0.59,0.016,1.091,0.104,1.502,0.227
			C51.896,11.149,51.953,10.529,51.974,10.213"/>
	</g>
	<g>
		<path fill="#7B3720" d="M30.2,9.779c-0.774,0-1.401,0.627-1.401,1.401s0.627,1.403,1.401,1.403c0.774,0,1.402-0.629,1.402-1.403
			S30.975,9.779,30.2,9.779"/>
		<path fill="#7B3720" d="M30,0c-5.521,0-10,4.478-10,10.002C20,15.522,24.479,20,30,20s10-4.479,10-9.998C40,4.478,35.521,0,30,0
			 M32.706,13.529h-4.424c-2.406,0-1.287-1.904-1.287-1.904l1.624-2.742h3.079c0,0,0.503,0.727,1.51,2.52
			C34.216,13.191,32.706,13.529,32.706,13.529 M34.168,9.521h-0.991c-0.621,0-0.601-0.703-0.601-0.703
			c-0.098-0.553-0.432-1.225-1.49-1.225h-0.939h-0.019h-0.939c-1.058,0-1.393,0.672-1.49,1.225c0,0,0.022,0.703-0.6,0.703h-0.992
			c0,0-0.554,0.08-0.419-0.708c0.386-2.269,2.435-2.339,2.435-2.339h2.005h0.019h2.005c0,0,2.049,0.072,2.436,2.339
			C34.722,9.602,34.168,9.521,34.168,9.521"/>
	</g>
</g>
</svg>
